<?xml version="1.0" standalone="no"?><!DOCTYPE svg PUBLIC "-//W3C//DTD SVG 1.1//EN" "http://www.w3.org/Graphics/SVG/1.1/DTD/svg11.dtd"><svg t="1486280900354" class="icon" style="" viewBox="0 0 1024 1024" version="1.1" xmlns="http://www.w3.org/2000/svg" p-id="3369" xmlns:xlink="http://www.w3.org/1999/xlink" width="16" height="16"><defs><style type="text/css"></style></defs><path d="M524.032 928c-67.136 0-133.888-16.256-193.152-46.912l44.16-85.248C421.312 819.84 471.488 832 524.032 832c178.624 0 323.968-145.344 323.968-323.968 0-178.688-145.344-323.968-323.968-323.968-178.688 0-323.968 145.344-323.968 323.968 0 0-1.984 14.016-46.016 14.016S104 508.032 104 508.032c0-231.616 188.416-419.968 419.968-419.968 231.552 0 419.968 188.416 419.968 419.968C944 739.584 755.584 928 524.032 928z" p-id="3370"></path><path d="M315.968 955.648 190.016 746.752 433.408 730.688Z" p-id="3371"></path></svg>